<svg xmlns="http://www.w3.org/2000/svg" version="1.1" xmlns:xlink="http://www.w3.org/1999/xlink" xmlns:svgjs="http://svgjs.com/svgjs" width="1440" height="560" preserveAspectRatio="none" viewBox="0 0 1440 560"><g mask="url(&quot;#SvgjsMask1000&quot;)" fill="none"><rect width="1440" height="560" x="0" y="0" fill="#1e3266"></rect><path d="M1512 560L0 560 L0 344.34Q38.94 263.28, 120 302.23Q148.94 259.18, 192 288.12Q271.06 247.19, 312 326.25Q358 300.25, 384 346.24Q424.36 266.6, 504 306.96Q533.15 264.12, 576 293.27Q630.64 227.91, 696 282.55Q789.69 256.25, 816 349.94Q862.13 276.07, 936 322.21Q1022.03 288.24, 1056 374.26Q1058.37 304.63, 1128 306.99Q1155.24 262.24, 1200 289.48Q1283.37 252.85, 1320 336.22Q1346.85 291.07, 1392 317.92Q1478.52 284.44, 1512 370.96z" fill="#182f5d"></path><path d="M1512 560L0 560 L0 430.35Q63.06 373.41, 120 436.47Q158.16 354.63, 240 392.8Q287.16 319.96, 360 367.12Q419.24 354.36, 432 413.6Q498.63 360.23, 552 426.86Q594.22 349.08, 672 391.3Q699.89 347.19, 744 375.09Q819.92 331.01, 864 406.94Q929.3 352.24, 984 417.54Q992.48 354.02, 1056 362.51Q1086.97 321.49, 1128 352.46Q1189.97 342.43, 1200 404.4Q1280.38 364.78, 1320 445.17Q1348.89 402.06, 1392 430.96Q1414.03 332.99, 1512 355.01z" fill="#25467d"></path><path d="M1464 560L0 560 L0 475.67Q35.58 439.25, 72 474.84Q113.31 396.15, 192 437.46Q219.61 393.07, 264 420.68Q364.87 401.55, 384 502.42Q419.69 418.12, 504 453.81Q557.77 387.59, 624 441.36Q682.74 428.1, 696 486.83Q723.07 393.9, 816 420.97Q898.34 383.31, 936 465.65Q990.73 448.38, 1008 503.1Q1038.47 461.57, 1080 492.04Q1109.27 449.31, 1152 478.58Q1205.06 459.63, 1224 512.69Q1246.63 415.33, 1344 437.96Q1411.9 385.87, 1464 453.77z" fill="#356cb1"></path><path d="M1536 560L0 560 L0 549.68Q14.35 492.03, 72 506.38Q137.24 451.62, 192 516.86Q238.65 491.51, 264 538.16Q331.67 485.83, 384 553.49Q430.88 528.38, 456 575.26Q479.76 479.02, 576 502.79Q617.81 472.6, 648 514.4Q717.13 511.52, 720 580.65Q732.54 521.19, 792 533.74Q818.68 488.42, 864 515.1Q889.01 468.11, 936 493.12Q1022.35 459.47, 1056 545.82Q1137.09 506.91, 1176 588Q1228.4 520.4, 1296 572.81Q1314.6 471.4, 1416 490Q1487.69 441.69, 1536 513.38z" fill="white"></path></g><defs><mask id="SvgjsMask1000"><rect width="1440" height="560" fill="#ffffff"></rect></mask></defs></svg>