<svg xmlns="http://www.w3.org/2000/svg" version="1.1" xmlns:xlink="http://www.w3.org/1999/xlink" xmlns:svgjs="http://svgjs.com/svgjs" width="1440" height="560" preserveAspectRatio="none" viewBox="0 0 1440 560"><g mask="url(&quot;#SvgjsMask1001&quot;)" fill="none"><path d="M1536 560L0 560 L0 370.66Q27.77 278.43, 120 306.2Q167.68 281.88, 192 329.55Q229.13 246.69, 312 283.82Q404.36 256.18, 432 348.54Q482.41 278.95, 552 329.35Q599.35 256.7, 672 304.04Q757.88 269.93, 792 355.81Q838.47 330.28, 864 376.76Q905.79 298.55, 984 340.34Q1018.54 254.88, 1104 289.41Q1146.29 259.7, 1176 301.99Q1267.38 273.37, 1296 364.75Q1337.24 285.99, 1416 327.23Q1486.84 278.06, 1536 348.9z" fill="#182f5d"></path><path d="M1512 560L0 560 L0 412.58Q50.67 343.25, 120 393.92Q148.89 350.81, 192 379.71Q214.65 330.36, 264 353Q312.49 329.49, 336 377.98Q401.44 323.42, 456 388.86Q501.7 314.56, 576 360.27Q637.05 349.32, 648 410.38Q720.17 362.55, 768 434.72Q768.87 363.59, 840 364.45Q905.67 310.12, 960 375.79Q1046.98 342.77, 1080 429.75Q1102.49 332.24, 1200 354.72Q1243.66 326.38, 1272 370.04Q1366.38 344.42, 1392 438.79Q1410.05 336.84, 1512 354.89z" fill="#25467d"></path><path d="M1464 560L0 560 L0 430.25Q72.13 382.38, 120 454.51Q165.12 427.63, 192 472.75Q259.73 420.48, 312 488.2Q327.84 432.04, 384 447.89Q458.67 402.56, 504 477.23Q575.49 428.72, 624 500.21Q661.88 418.09, 744 455.97Q818.65 410.63, 864 485.28Q914.51 415.79, 984 466.3Q1012.17 422.48, 1056 450.65Q1079.9 402.55, 1128 426.46Q1185.86 412.32, 1200 470.18Q1255.29 453.47, 1272 508.75Q1282.79 447.54, 1344 458.33Q1397.2 391.53, 1464 444.74z" fill="#356cb1"></path><path d="M1512 560L0 560 L0 537.4Q33.6 499, 72 532.59Q116.69 457.28, 192 501.97Q282.64 472.62, 312 563.26Q346.64 477.9, 432 512.55Q457.74 466.29, 504 492.03Q559.51 475.54, 576 531.06Q648.81 483.87, 696 556.67Q763.35 504.02, 816 571.37Q822.46 505.83, 888 512.29Q914.23 466.51, 960 492.74Q1012.76 473.5, 1032 526.27Q1059.04 481.3, 1104 508.34Q1158.61 490.95, 1176 545.56Q1219.47 517.03, 1248 560.5Q1291.97 532.47, 1320 576.44Q1339.23 475.67, 1440 494.9Q1507.58 490.48, 1512 558.06z" fill="white"></path></g><defs><mask id="SvgjsMask1001"><rect width="1440" height="560" fill="#ffffff"></rect></mask></defs></svg>