<svg xmlns="http://www.w3.org/2000/svg" version="1.1" xmlns:xlink="http://www.w3.org/1999/xlink" xmlns:svgjs="http://svgjs.com/svgjs" width="1440" height="560" preserveAspectRatio="none" viewBox="0 0 1440 560"><g mask="url(&quot;#SvgjsMask1113&quot;)" fill="none"><rect width="1440" height="560" x="0" y="0" fill="rgba(203, 203, 203, 1)"></rect><path d="M0,547.126C102.228,565.573,208.079,515.054,289.755,450.868C367.773,389.556,415.059,297.046,440.325,201.09C463.074,114.691,446.725,25.506,424.543,-61.04C404.308,-139.99,366.595,-210.134,318.13,-275.661C266.113,-345.991,212.202,-416.443,133.475,-454.576C46.392,-496.757,-53.844,-526.782,-147.111,-501.013C-240.825,-475.12,-313.527,-398.876,-365.503,-316.71C-413.241,-241.243,-422.359,-150.404,-425.35,-61.156C-428.08,20.3,-416.515,100.621,-381.962,174.436C-347.64,247.758,-287.479,300.624,-229.534,357.162C-156.98,427.955,-99.758,529.125,0,547.126" fill="#b7b7b7"></path><path d="M1440 1017.133C1526.136 1020.6089999999999 1600.551 968.136 1678.114 930.5129999999999 1766.466 887.656 1882.4560000000001 869.985 1925.408 781.679 1968.3490000000002 693.395 1921.635 588.194 1889.785 495.331 1862.3890000000001 415.45500000000004 1819.249 342.02 1755.587 286.542 1697.247 235.702 1619.679 222.31400000000002 1546.761 196.406 1468.994 168.776 1393.068 107.25 1313.595 129.503 1234.084 151.76600000000002 1199.874 242.80700000000002 1148.942 307.796 1100.726 369.31899999999996 1048.413 426.08799999999997 1023.181 500.07 994.014 585.59 955.3779999999999 681.988 993.3620000000001 763.973 1031.336 845.9359999999999 1135.34 867.2339999999999 1213.926 911.778 1287.75 953.6220000000001 1355.211 1013.711 1440 1017.133" fill="#dfdfdf"></path></g><defs><mask id="SvgjsMask1113"><rect width="1440" height="560" fill="#ffffff"></rect></mask></defs></svg>